<?xml version="1.0" encoding="UTF-8" standalone="no"?>
<!DOCTYPE svg PUBLIC "-//W3C//DTD SVG 1.1//EN"
 "http://www.w3.org/Graphics/SVG/1.1/DTD/svg11.dtd">
<!-- Generated by graphviz version 2.40.1 (20161225.0304)
 -->
<!-- Title: %0 Pages: 1 -->
<svg width="282pt" height="299pt"
 viewBox="0.00 0.00 282.20 299.49" xmlns="http://www.w3.org/2000/svg" xmlns:xlink="http://www.w3.org/1999/xlink">
<g id="graph0" class="graph" transform="scale(1 1) rotate(0) translate(4 295.49)">
<title>%0</title>
<polygon fill="#ffffff" stroke="transparent" points="-4,4 -4,-295.49 278.2,-295.49 278.2,4 -4,4"/>
<!-- 80 -->
<g id="node1" class="node">
<title>80</title>
<ellipse fill="none" stroke="#000000" cx="136.6" cy="-273.9537" rx="27" ry="17.5726"/>
<text text-anchor="middle" x="136.6" y="-269.7537" font-family="Courier,monospace" font-size="14.00" fill="#000000">8</text>
</g>
<!-- 31 -->
<g id="node2" class="node">
<title>31</title>
<ellipse fill="none" stroke="#000000" cx="100.6" cy="-202.8812" rx="27" ry="17.5726"/>
<text text-anchor="middle" x="100.6" y="-198.6812" font-family="Courier,monospace" font-size="14.00" fill="#000000">3</text>
</g>
<!-- 80&#45;&gt;31 -->
<g id="edge1" class="edge">
<title>80&#45;&gt;31</title>
<path fill="none" stroke="#000000" d="M128.0685,-257.1105C123.7645,-248.6134 118.4508,-238.1229 113.6473,-228.6397"/>
<polygon fill="#000000" stroke="#000000" points="116.7113,-226.9429 109.0703,-219.6035 110.4666,-230.106 116.7113,-226.9429"/>
</g>
<!-- 101 -->
<g id="node13" class="node">
<title>101</title>
<ellipse fill="none" stroke="#000000" cx="172.6" cy="-202.8812" rx="27" ry="17.5726"/>
<text text-anchor="middle" x="172.6" y="-198.6812" font-family="Courier,monospace" font-size="14.00" fill="#000000">10</text>
</g>
<!-- 80&#45;&gt;101 -->
<g id="edge12" class="edge">
<title>80&#45;&gt;101</title>
<path fill="none" stroke="#000000" d="M145.1315,-257.1105C149.4355,-248.6134 154.7492,-238.1229 159.5527,-228.6397"/>
<polygon fill="#000000" stroke="#000000" points="162.7334,-230.106 164.1297,-219.6035 156.4887,-226.9429 162.7334,-230.106"/>
</g>
<!-- 12 -->
<g id="node3" class="node">
<title>12</title>
<ellipse fill="none" stroke="#000000" cx="28.6" cy="-131.8087" rx="27" ry="17.5726"/>
<text text-anchor="middle" x="28.6" y="-127.6087" font-family="Courier,monospace" font-size="14.00" fill="#000000">1</text>
</g>
<!-- 31&#45;&gt;12 -->
<g id="edge2" class="edge">
<title>31&#45;&gt;12</title>
<path fill="none" stroke="#000000" d="M85.6816,-188.155C75.6415,-178.2443 62.2237,-164.9993 50.9199,-153.8411"/>
<polygon fill="#000000" stroke="#000000" points="53.0749,-151.0504 43.4993,-146.5161 48.1573,-156.0321 53.0749,-151.0504"/>
</g>
<!-- 62 -->
<g id="node6" class="node">
<title>62</title>
<ellipse fill="none" stroke="#000000" cx="100.6" cy="-131.8087" rx="27" ry="17.5726"/>
<text text-anchor="middle" x="100.6" y="-127.6087" font-family="Courier,monospace" font-size="14.00" fill="#000000">6</text>
</g>
<!-- 31&#45;&gt;62 -->
<g id="edge5" class="edge">
<title>31&#45;&gt;62</title>
<path fill="none" stroke="#000000" d="M100.6,-185.3128C100.6,-177.5976 100.6,-168.349 100.6,-159.728"/>
<polygon fill="#000000" stroke="#000000" points="104.1001,-159.6688 100.6,-149.6688 97.1001,-159.6688 104.1001,-159.6688"/>
</g>
<!-- null0 -->
<g id="node4" class="node">
<title>null0</title>
<ellipse fill="#000000" stroke="#000000" cx="3.6" cy="-60.7362" rx="3.6" ry="3.6"/>
</g>
<!-- 12&#45;&gt;null0 -->
<g id="edge3" class="edge">
<title>12&#45;&gt;null0</title>
<path fill="none" stroke="#0000ff" d="M22.5482,-114.6041C18.1294,-102.0419 12.2302,-85.271 8.195,-73.7992"/>
<polygon fill="#0000ff" stroke="#0000ff" points="11.4247,-72.4332 4.8047,-64.1612 4.8214,-74.7561 11.4247,-72.4332"/>
</g>
<!-- null1 -->
<g id="node5" class="node">
<title>null1</title>
<ellipse fill="#000000" stroke="#000000" cx="28.6" cy="-60.7362" rx="3.6" ry="3.6"/>
</g>
<!-- 12&#45;&gt;null1 -->
<g id="edge4" class="edge">
<title>12&#45;&gt;null1</title>
<path fill="none" stroke="#0000ff" d="M28.6,-114.2403C28.6,-102.0547 28.6,-86.0441 28.6,-74.7224"/>
<polygon fill="#0000ff" stroke="#0000ff" points="32.1001,-74.3861 28.6,-64.3861 25.1001,-74.3862 32.1001,-74.3861"/>
</g>
<!-- 43 -->
<g id="node7" class="node">
<title>43</title>
<ellipse fill="none" stroke="#000000" cx="77.6" cy="-60.7362" rx="27" ry="17.5726"/>
<text text-anchor="middle" x="77.6" y="-56.5362" font-family="Courier,monospace" font-size="14.00" fill="#000000">4</text>
</g>
<!-- 62&#45;&gt;43 -->
<g id="edge6" class="edge">
<title>62&#45;&gt;43</title>
<path fill="none" stroke="#000000" d="M95.0323,-114.6041C92.4436,-106.6046 89.3026,-96.8985 86.4038,-87.9408"/>
<polygon fill="#000000" stroke="#000000" points="89.6851,-86.7128 83.2762,-78.2762 83.0252,-88.8681 89.6851,-86.7128"/>
</g>
<!-- 73 -->
<g id="node10" class="node">
<title>73</title>
<ellipse fill="none" stroke="#000000" cx="149.6" cy="-60.7362" rx="27" ry="17.5726"/>
<text text-anchor="middle" x="149.6" y="-56.5362" font-family="Courier,monospace" font-size="14.00" fill="#000000">7</text>
</g>
<!-- 62&#45;&gt;73 -->
<g id="edge9" class="edge">
<title>62&#45;&gt;73</title>
<path fill="none" stroke="#000000" d="M111.7189,-115.6813C117.9212,-106.6851 125.7739,-95.295 132.7194,-85.2209"/>
<polygon fill="#000000" stroke="#000000" points="135.7305,-87.0195 138.5251,-76.7999 129.9674,-83.0462 135.7305,-87.0195"/>
</g>
<!-- null2 -->
<g id="node8" class="node">
<title>null2</title>
<ellipse fill="#000000" stroke="#000000" cx="65.6" cy="-3.6" rx="3.6" ry="3.6"/>
</g>
<!-- 43&#45;&gt;null2 -->
<g id="edge7" class="edge">
<title>43&#45;&gt;null2</title>
<path fill="none" stroke="#0000ff" d="M73.9344,-43.283C72.1768,-34.9145 70.1026,-25.0384 68.4631,-17.2322"/>
<polygon fill="#0000ff" stroke="#0000ff" points="71.8867,-16.5047 66.406,-7.4376 65.0362,-17.9435 71.8867,-16.5047"/>
</g>
<!-- null3 -->
<g id="node9" class="node">
<title>null3</title>
<ellipse fill="#000000" stroke="#000000" cx="90.6" cy="-3.6" rx="3.6" ry="3.6"/>
</g>
<!-- 43&#45;&gt;null3 -->
<g id="edge8" class="edge">
<title>43&#45;&gt;null3</title>
<path fill="none" stroke="#0000ff" d="M81.5711,-43.283C83.4751,-34.9145 85.7222,-25.0384 87.4983,-17.2322"/>
<polygon fill="#0000ff" stroke="#0000ff" points="90.921,-17.9649 89.7268,-7.4376 84.0954,-16.4119 90.921,-17.9649"/>
</g>
<!-- null4 -->
<g id="node11" class="node">
<title>null4</title>
<ellipse fill="#000000" stroke="#000000" cx="143.6" cy="-3.6" rx="3.6" ry="3.6"/>
</g>
<!-- 73&#45;&gt;null4 -->
<g id="edge10" class="edge">
<title>73&#45;&gt;null4</title>
<path fill="none" stroke="#0000ff" d="M147.7345,-42.9712C146.8676,-34.716 145.8524,-25.0494 145.045,-17.3605"/>
<polygon fill="#0000ff" stroke="#0000ff" points="148.5237,-16.9729 143.9983,-7.3931 141.5619,-17.704 148.5237,-16.9729"/>
</g>
<!-- null5 -->
<g id="node12" class="node">
<title>null5</title>
<ellipse fill="#000000" stroke="#000000" cx="168.6" cy="-3.6" rx="3.6" ry="3.6"/>
</g>
<!-- 73&#45;&gt;null5 -->
<g id="edge11" class="edge">
<title>73&#45;&gt;null5</title>
<path fill="none" stroke="#0000ff" d="M155.3006,-43.5935C158.1795,-34.9361 161.6158,-24.6028 164.2741,-16.6086"/>
<polygon fill="#0000ff" stroke="#0000ff" points="167.6225,-17.631 167.4569,-7.0375 160.9802,-15.4221 167.6225,-17.631"/>
</g>
<!-- null6 -->
<g id="node14" class="node">
<title>null6</title>
<ellipse fill="#000000" stroke="#000000" cx="172.6" cy="-131.8087" rx="3.6" ry="3.6"/>
</g>
<!-- 101&#45;&gt;null6 -->
<g id="edge13" class="edge">
<title>101&#45;&gt;null6</title>
<path fill="none" stroke="#0000ff" d="M172.6,-185.3128C172.6,-173.1272 172.6,-157.1166 172.6,-145.7949"/>
<polygon fill="#0000ff" stroke="#0000ff" points="176.1001,-145.4586 172.6,-135.4586 169.1001,-145.4587 176.1001,-145.4586"/>
</g>
<!-- 142 -->
<g id="node15" class="node">
<title>142</title>
<ellipse fill="none" stroke="#000000" cx="221.6" cy="-131.8087" rx="27" ry="17.5726"/>
<text text-anchor="middle" x="221.6" y="-127.6087" font-family="Courier,monospace" font-size="14.00" fill="#000000">14</text>
</g>
<!-- 101&#45;&gt;142 -->
<g id="edge14" class="edge">
<title>101&#45;&gt;142</title>
<path fill="none" stroke="#000000" d="M183.7189,-186.7538C189.9212,-177.7576 197.7739,-166.3675 204.7194,-156.2934"/>
<polygon fill="#000000" stroke="#000000" points="207.7305,-158.092 210.5251,-147.8724 201.9674,-154.1187 207.7305,-158.092"/>
</g>
<!-- 133 -->
<g id="node16" class="node">
<title>133</title>
<ellipse fill="none" stroke="#000000" cx="221.6" cy="-60.7362" rx="27" ry="17.5726"/>
<text text-anchor="middle" x="221.6" y="-56.5362" font-family="Courier,monospace" font-size="14.00" fill="#000000">13</text>
</g>
<!-- 142&#45;&gt;133 -->
<g id="edge15" class="edge">
<title>142&#45;&gt;133</title>
<path fill="none" stroke="#000000" d="M221.6,-114.2403C221.6,-106.5251 221.6,-97.2765 221.6,-88.6555"/>
<polygon fill="#000000" stroke="#000000" points="225.1001,-88.5963 221.6,-78.5963 218.1001,-88.5963 225.1001,-88.5963"/>
</g>
<!-- null9 -->
<g id="node19" class="node">
<title>null9</title>
<ellipse fill="#000000" stroke="#000000" cx="270.6" cy="-60.7362" rx="3.6" ry="3.6"/>
</g>
<!-- 142&#45;&gt;null9 -->
<g id="edge18" class="edge">
<title>142&#45;&gt;null9</title>
<path fill="none" stroke="#0000ff" d="M232.7189,-115.6813C241.8039,-102.5038 254.4302,-84.1899 262.5591,-72.3992"/>
<polygon fill="#0000ff" stroke="#0000ff" points="265.5484,-74.2296 268.343,-64.0099 259.7853,-70.2563 265.5484,-74.2296"/>
</g>
<!-- null7 -->
<g id="node17" class="node">
<title>null7</title>
<ellipse fill="#000000" stroke="#000000" cx="202.6" cy="-3.6" rx="3.6" ry="3.6"/>
</g>
<!-- 133&#45;&gt;null7 -->
<g id="edge16" class="edge">
<title>133&#45;&gt;null7</title>
<path fill="none" stroke="#0000ff" d="M215.8994,-43.5935C213.0205,-34.9361 209.5842,-24.6028 206.9259,-16.6086"/>
<polygon fill="#0000ff" stroke="#0000ff" points="210.2198,-15.4221 203.7431,-7.0375 203.5775,-17.631 210.2198,-15.4221"/>
</g>
<!-- null8 -->
<g id="node18" class="node">
<title>null8</title>
<ellipse fill="#000000" stroke="#000000" cx="227.6" cy="-3.6" rx="3.6" ry="3.6"/>
</g>
<!-- 133&#45;&gt;null8 -->
<g id="edge17" class="edge">
<title>133&#45;&gt;null8</title>
<path fill="none" stroke="#0000ff" d="M223.4655,-42.9712C224.3324,-34.716 225.3476,-25.0494 226.155,-17.3605"/>
<polygon fill="#0000ff" stroke="#0000ff" points="229.6381,-17.704 227.2017,-7.3931 222.6763,-16.9729 229.6381,-17.704"/>
</g>
</g>
</svg>
